<?xml version="1.0" encoding="utf-8"?>
<!-- Generator: Adobe Illustrator 16.0.3, SVG Export Plug-In . SVG Version: 6.00 Build 0)  -->
<!DOCTYPE svg PUBLIC "-//W3C//DTD SVG 1.1//EN" "http://www.w3.org/Graphics/SVG/1.1/DTD/svg11.dtd">
<svg version="1.1" id="Layer_1" xmlns="http://www.w3.org/2000/svg" xmlns:xlink="http://www.w3.org/1999/xlink" x="0px" y="0px"
	 width="462.31px" height="462.396px" viewBox="0 0 462.31 462.396" enable-background="new 0 0 462.31 462.396"
	 xml:space="preserve">
<path fill-rule="evenodd" clip-rule="evenodd" fill="#0066FF" d="M0.124,231.613c0-32.827-0.357-65.661,0.143-98.481
	c0.271-17.759,0.854-35.551,4.513-53.123c7.767-37.305,37.227-67.045,74.736-74.817c12.58-2.606,25.261-3.728,38.127-4.104
	c70.3-2.057,140.608-0.526,210.911-0.734c16.422-0.049,32.855,1.059,49.207,3.568c41.639,6.392,73.649,39.084,80.591,80.633
	c2.648,15.85,3.555,31.8,3.652,47.709c0.406,66.153,0.396,132.312,0.035,198.466c-0.096,17.258-0.893,34.561-4.445,51.645
	c-7.906,38.006-36.993,67.154-74.937,75.085c-17.406,3.637-35.031,4.58-52.631,4.674c-66.154,0.348-132.313,0.35-198.467,0.01
	c-18.438-0.094-36.942-0.871-55.068-5.199c-39.139-9.349-68.792-43.099-73.522-83.534c-2.462-21.047-2.901-42.16-2.893-63.309
	c0.01-26.162,0.002-52.324,0.002-78.487C0.093,231.613,0.108,231.613,0.124,231.613z"/>
<g>
	<path fill="#FFFFFF" d="M377.193,259.737c-10.702-28.45-21.405-56.915-32.094-85.359c-0.337-0.885-0.631-1.776-0.947-2.668
		c-0.096,0-0.191,0-0.302,0c-1.962,4.232-3.498,8.631-5.229,12.966c-3.292,8.226-6.503,16.479-9.796,24.698
		c-0.509,1.27-0.509,2.359-0.055,3.636c3.725,10.346,7.416,20.719,11.1,31.092c0.646,1.798,0.632,1.805-1.304,1.812
		c-7.333,0.014-14.674,0.055-22.022-0.028c-1.639-0.019-2.4,0.556-2.978,2.059c-2.441,6.422-5.007,12.789-7.512,19.183
		c-0.823,2.078-0.734,2.202,1.495,2.21c12.686,0.006,25.364,0.033,38.049-0.035c1.682-0.007,2.518,0.508,3.08,2.14
		c2.189,6.332,4.521,12.624,6.793,18.93c6.305,0,12.609,0,18.895,0c4.403,0,8.809,0.006,13.226-0.015
		c0.398,0,1.119,0.356,0.934-0.617C384.754,279.736,380.96,269.748,377.193,259.737z"/>
	<path fill="#FFFFFF" d="M157.448,186.988c-5.711-8.054-13.635-12.521-23.168-14.4c-1.791-0.357-3.618-0.597-5.416-0.885
		c-17.885,0-35.778,0.007-53.674-0.027c-1.173-0.007-1.437,0.268-1.437,1.447c0.041,39.072,0.028,78.164,0.028,117.24
		c10.074,0,20.139,0,30.221,0c0.021-12.313,0.034-24.628,0.058-36.949c0.007-3.945-0.346-3.575,3.52-3.581
		c5.711-0.007,11.43,0.04,17.142-0.042c4.356-0.047,8.668-0.563,12.925-1.55c1.145-0.268,1.776-0.838,2.15-1.983
		c6.062-18.805,12.147-37.597,18.281-56.374C158.44,188.717,158.083,187.887,157.448,186.988z M133.676,212.304
		c-0.092,1.256-0.309,2.504-0.624,3.718c-1.534,5.805-5.523,9.14-11.951,10.004c-5.214,0.706-10.466,0.267-15.707,0.371
		c-1.308,0.019-1.342-0.865-1.342-1.826c0.007-4.61,0.007-9.22,0.007-13.838c0-4.672,0.007-9.331-0.007-13.995
		c0-1.022,0.237-1.777,1.451-1.756c5.234,0.11,10.483-0.356,15.704,0.384C131.155,196.765,134.218,204.297,133.676,212.304z"/>
	<path fill="#FFFFFF" d="M325.272,171.667l-47.851,119h-31.459c-0.319-1-0.64-2.04-0.96-3.151l-0.353-1.206l-1.121-3.632
		l-0.171-0.577c-6.183-19.744-12.376-39.505-18.549-59.26c-0.16,0.012-0.32,0.181-0.48,0.191
		c-7.379,22.488-14.747,44.636-22.126,67.636h-31.48c-5.168-9-10.347-17.919-15.537-26.772c-0.544-0.918-0.481-1.825-0.171-2.776
		c1.559-4.719,3.086-9.493,4.614-14.235c3.417-10.528,6.823-21.058,10.24-31.575c0.16-0.502,0.139-1.351,0.812-1.383
		c0.641-0.042,0.694,0.809,1.015,1.268c0.053,0.085,0.074,0.18,0.139,0.266c5.147,10.262,10.305,20.524,15.462,30.774
		c0.246,0.471,0.364,1.057,0.972,1.388c0.203-0.555,0.384-0.982,0.523-1.431c7.528-23.118,15.067-46.269,22.585-69.398
		c0.544-1.698,1.025-4.125,1.526-5.125h24.871c0.107,0,0.181,0.821,0.299,1.237c7.39,24.379,14.769,48.779,22.179,73.179
		c0.118,0.385,0.118,0.827,0.471,1.116l0.01,0.028c0.032,0.043,0.064,0.084,0.107,0.084l0.011,0.016
		c0.214,0.032,0.448-0.413,0.534-0.574c0.01-0.032,0.021-0.052,0.021-0.052l11.063-26.13c4.304-10.091,8.628-20.202,12.91-30.305
		c2.626-6.182,5.189-11.6,7.784-18.6H325.272z"/>
</g>
</svg>
